<?xml version="1.0" encoding="UTF-8" standalone="no"?>
<!DOCTYPE svg PUBLIC "-//W3C//DTD SVG 1.1//EN"
 "http://www.w3.org/Graphics/SVG/1.1/DTD/svg11.dtd">
<!-- Generated by graphviz version 2.38.0 (20140413.2041)
 -->
<!-- Title: console.h Pages: 1 -->
<svg width="395pt" height="140pt"
 viewBox="0.00 0.00 394.50 140.00" xmlns="http://www.w3.org/2000/svg" xmlns:xlink="http://www.w3.org/1999/xlink">
<g id="graph0" class="graph" transform="scale(1 1) rotate(0) translate(4 136)">
<title>console.h</title>
<polygon fill="white" stroke="none" points="-4,4 -4,-136 390.5,-136 390.5,4 -4,4"/>
<!-- Node1 -->
<g id="node1" class="node"><title>Node1</title>
<polygon fill="#bfbfbf" stroke="black" points="197,-112.5 197,-131.5 256,-131.5 256,-112.5 197,-112.5"/>
<text text-anchor="middle" x="226.5" y="-119.5" font-family="Helvetica,sans-Serif" font-size="10.00">console.h</text>
</g>
<!-- Node2 -->
<g id="node2" class="node"><title>Node2</title>
<g id="a_node2"><a xlink:href="shutdown_8c.html" target="_top" xlink:title="shutdown.c">
<polygon fill="white" stroke="black" points="0,-56.5 0,-75.5 67,-75.5 67,-56.5 0,-56.5"/>
<text text-anchor="middle" x="33.5" y="-63.5" font-family="Helvetica,sans-Serif" font-size="10.00">shutdown.c</text>
</a>
</g>
</g>
<!-- Node1&#45;&gt;Node2 -->
<g id="edge1" class="edge"><title>Node1&#45;&gt;Node2</title>
<path fill="none" stroke="midnightblue" d="M186.961,-109.937C150.498,-99.7352 97.1362,-84.8049 63.9043,-75.5069"/>
<polygon fill="midnightblue" stroke="midnightblue" points="186.193,-113.357 196.767,-112.681 188.08,-106.616 186.193,-113.357"/>
</g>
<!-- Node3 -->
<g id="node3" class="node"><title>Node3</title>
<g id="a_node3"><a xlink:href="kernel_2console_8c.html" target="_top" xlink:title="console.c">
<polygon fill="white" stroke="black" points="85,-56.5 85,-75.5 144,-75.5 144,-56.5 85,-56.5"/>
<text text-anchor="middle" x="114.5" y="-63.5" font-family="Helvetica,sans-Serif" font-size="10.00">console.c</text>
</a>
</g>
</g>
<!-- Node1&#45;&gt;Node3 -->
<g id="edge2" class="edge"><title>Node1&#45;&gt;Node3</title>
<path fill="none" stroke="midnightblue" d="M199.251,-107.862C178.484,-97.8492 150.477,-84.3458 132.45,-75.6545"/>
<polygon fill="midnightblue" stroke="midnightblue" points="197.977,-111.134 208.505,-112.324 201.018,-104.828 197.977,-111.134"/>
</g>
<!-- Node4 -->
<g id="node4" class="node"><title>Node4</title>
<g id="a_node4"><a xlink:href="kernel_2debug_8c.html" target="_top" xlink:title="debug.c">
<polygon fill="white" stroke="black" points="162,-56.5 162,-75.5 213,-75.5 213,-56.5 162,-56.5"/>
<text text-anchor="middle" x="187.5" y="-63.5" font-family="Helvetica,sans-Serif" font-size="10.00">debug.c</text>
</a>
</g>
</g>
<!-- Node1&#45;&gt;Node4 -->
<g id="edge3" class="edge"><title>Node1&#45;&gt;Node4</title>
<path fill="none" stroke="midnightblue" d="M214.118,-103.855C207.365,-94.5048 199.291,-83.3265 193.82,-75.7511"/>
<polygon fill="midnightblue" stroke="midnightblue" points="211.368,-106.025 220.06,-112.083 217.042,-101.927 211.368,-106.025"/>
</g>
<!-- Node5 -->
<g id="node5" class="node"><title>Node5</title>
<g id="a_node5"><a xlink:href="hellopintos_8c.html" target="_top" xlink:title="Programa que imprime &quot;Hello, pintos&quot; en la consola de PintOS. ">
<polygon fill="white" stroke="black" points="231,-56.5 231,-75.5 302,-75.5 302,-56.5 231,-56.5"/>
<text text-anchor="middle" x="266.5" y="-63.5" font-family="Helvetica,sans-Serif" font-size="10.00">hellopintos.c</text>
</a>
</g>
</g>
<!-- Node1&#45;&gt;Node5 -->
<g id="edge4" class="edge"><title>Node1&#45;&gt;Node5</title>
<path fill="none" stroke="midnightblue" d="M239.2,-103.855C246.126,-94.5048 254.406,-83.3265 260.018,-75.7511"/>
<polygon fill="midnightblue" stroke="midnightblue" points="236.245,-101.964 233.105,-112.083 241.87,-106.131 236.245,-101.964"/>
</g>
<!-- Node6 -->
<g id="node6" class="node"><title>Node6</title>
<g id="a_node6"><a xlink:href="threads_2shell_8c.html" target="_top" xlink:title="shell.c">
<polygon fill="white" stroke="black" points="320,-56.5 320,-75.5 365,-75.5 365,-56.5 320,-56.5"/>
<text text-anchor="middle" x="342.5" y="-63.5" font-family="Helvetica,sans-Serif" font-size="10.00">shell.c</text>
</a>
</g>
</g>
<!-- Node1&#45;&gt;Node6 -->
<g id="edge5" class="edge"><title>Node1&#45;&gt;Node6</title>
<path fill="none" stroke="midnightblue" d="M254.22,-108.096C275.892,-98.0073 305.402,-84.2697 324.205,-75.5164"/>
<polygon fill="midnightblue" stroke="midnightblue" points="252.469,-105.05 244.881,-112.444 255.423,-111.396 252.469,-105.05"/>
</g>
<!-- Node7 -->
<g id="node7" class="node"><title>Node7</title>
<g id="a_node7"><a xlink:href="init_8c.html" target="_top" xlink:title="init.c">
<polygon fill="white" stroke="black" points="348.5,-0.5 348.5,-19.5 386.5,-19.5 386.5,-0.5 348.5,-0.5"/>
<text text-anchor="middle" x="367.5" y="-7.5" font-family="Helvetica,sans-Serif" font-size="10.00">init.c</text>
</a>
</g>
</g>
<!-- Node1&#45;&gt;Node7 -->
<g id="edge7" class="edge"><title>Node1&#45;&gt;Node7</title>
<path fill="none" stroke="midnightblue" d="M266.492,-121.089C301.279,-118.77 349.864,-109.241 374.5,-76 386.935,-59.2218 377.879,-32.9832 371.801,-19.5511"/>
<polygon fill="midnightblue" stroke="midnightblue" points="265.998,-117.609 256.182,-121.595 266.341,-124.6 265.998,-117.609"/>
</g>
<!-- Node6&#45;&gt;Node7 -->
<g id="edge6" class="edge"><title>Node6&#45;&gt;Node7</title>
<path fill="none" stroke="midnightblue" d="M350.841,-46.9827C355.085,-37.8168 360.05,-27.0922 363.449,-19.7511"/>
<polygon fill="midnightblue" stroke="midnightblue" points="347.653,-45.5379 346.628,-56.083 354.006,-48.4788 347.653,-45.5379"/>
</g>
</g>
</svg>
